<svg viewBox="0 0 32 32" xmlns="http://www.w3.org/2000/svg"><path d="m17.625 3c1.402344 3.308594-5.027344 5.335938-5.625 8.09375-.546875 2.53125 3.808594 5.5 3.8125 5.5-.664062-1.046875-1.148437-1.929687-1.8125-3.5625-1.125-2.757812 6.855469-5.246094 3.625-10.03125zm4.25 4.59375s-5.621094.355469-5.90625 4.03125c-.128906 1.636719 1.484375 2.496094 1.53125 3.6875.039063.972656-.96875 1.78125-.96875 1.78125s1.808594-.328125 2.375-1.8125c.625-1.648437-1.21875-2.773437-1.03125-4.09375.179688-1.261719 4-3.59375 4-3.59375zm1.375 8.46875c-.589844-.027344-1.253906.191406-1.84375.625 1.164063-.257812 2.15625.472656 2.15625 1.3125 0 1.882813-2.6875 3.65625-2.6875 3.65625s4.15625-.464844 4.15625-3.5625c0-1.277344-.800781-1.984375-1.78125-2.03125zm-11.03125.03125c-1.449219.050781-4.34375.289063-4.34375 1.40625 0 1.554688 6.742188 1.675781 11.5625.71875 0 0 1.3125-.914062 1.65625-1.25-3.160156.65625-10.375.757813-10.375.1875 0-.523437 2.3125-1.0625 2.3125-1.0625s-.328125-.015625-.8125 0zm-.4375 2.875c-.792969 0-1.96875.617188-1.96875 1.21875 0 1.210938 5.96875 2.140625 10.375.375l-1.53125-.9375c-2.988281.976563-8.507812.652344-6.875-.65625zm.75 2.71875c-1.082031 0-1.78125.683594-1.78125 1.1875 0 1.550781 6.464844 1.703125 9.03125.125l-1.625-1.0625c-1.914062.824219-6.730469.945313-5.625-.25zm-3.625 1.40625c-1.765625-.035156-2.90625.765625-2.90625 1.4375 0 3.574219 18.09375 3.402344 18.09375-.25 0-.605469-.714844-.894531-.96875-1.03125 1.476563 3.492188-14.78125 3.21875-14.78125 1.15625 0-.46875 1.203125-.9375 2.3125-.71875l-.9375-.53125c-.277344-.042969-.558594-.058594-.8125-.0625zm17.09375 2.40625c-2.75 2.660156-9.710937 3.613281-16.71875 1.96875 7.007813 2.929688 16.683594 1.300781 16.71875-1.96875z"/></svg>