<svg height="32" viewBox="0 0 32 32" width="32" xmlns="http://www.w3.org/2000/svg"><path d="m29.094 1.661c-.448 1.078-1.021 2.094-1.708 3.031-3.01-3.005-7.089-4.693-11.344-4.693-8.802 0-16.042 7.24-16.042 16.042 0 4.391 1.802 8.594 4.984 11.62l.589.526c2.896 2.438 6.552 3.771 10.333 3.776 8.37 0 15.401-6.552 16-14.896.438-4.089-.766-9.255-2.813-15.401zm-21.834 26.094c-.255.323-.651.505-1.063.505-.76 0-1.37-.615-1.375-1.37 0-.755.625-1.375 1.375-1.375 1.151.005 1.792 1.344 1.063 2.24zm21.771-4.802c-3.958 5.271-12.417 3.495-17.833 3.75 0 0-.964.057-1.932.214 0 0 .365-.151.833-.333 3.807-1.323 5.604-1.578 7.917-2.766 4.354-2.214 8.661-7.057 9.557-12.094-1.661 4.849-6.688 9.01-11.266 10.703-3.135 1.156-8.802 2.281-8.802 2.281l-.229-.12c-3.859-1.875-3.974-10.229 3.036-12.927 3.068-1.177 6.01-.531 9.323-1.318 3.542-.844 7.641-3.5 9.307-6.964 1.865 5.542 4.109 14.214.089 19.573z"/></svg>